<?xml version="1.0" encoding="UTF-8" standalone="no"?>
<!DOCTYPE svg PUBLIC "-//W3C//DTD SVG 1.1//EN"
 "http://www.w3.org/Graphics/SVG/1.1/DTD/svg11.dtd">
<!-- Generated by graphviz version 2.38.0 (20140413.2041)
 -->
<!-- Title: dependencies Pages: 1 -->
<svg width="1210pt" height="284pt"
 viewBox="0.00 0.00 1210.00 284.00" xmlns="http://www.w3.org/2000/svg" xmlns:xlink="http://www.w3.org/1999/xlink">
<g id="graph0" class="graph" transform="scale(1 1) rotate(0) translate(4 280)">
<title>dependencies</title>
<polygon fill="white" stroke="none" points="-4,4 -4,-280 1206,-280 1206,4 -4,4"/>
<text text-anchor="start" x="580.009" y="-42.4" font-family="sans-serif" font-weight="bold" font-size="14.00">Legend</text>
<polygon fill="#ffffb3" stroke="none" points="367,-10 367,-30 387,-30 387,-10 367,-10"/>
<text text-anchor="start" x="390.629" y="-15.4" font-family="sans-serif" font-size="14.00"> &#160;Declarations</text>
<polygon fill="#8dd3c7" stroke="none" points="480,-10 480,-30 500,-30 500,-10 480,-10"/>
<text text-anchor="start" x="503.725" y="-15.4" font-family="sans-serif" font-size="14.00"> &#160;Module</text>
<polygon fill="#80b1d3" stroke="none" points="566,-10 566,-30 586,-30 586,-10 566,-10"/>
<text text-anchor="start" x="589.781" y="-15.4" font-family="sans-serif" font-size="14.00"> &#160;Bootstrap</text>
<polygon fill="#fdb462" stroke="none" points="663,-10 663,-30 683,-30 683,-10 663,-10"/>
<text text-anchor="start" x="686.673" y="-15.4" font-family="sans-serif" font-size="14.00"> &#160;Providers</text>
<polygon fill="#fb8072" stroke="none" points="759,-10 759,-30 779,-30 779,-10 759,-10"/>
<text text-anchor="start" x="782.726" y="-15.4" font-family="sans-serif" font-size="14.00"> &#160;Exports</text>
<g id="clust1" class="cluster"><title>cluster_AppModule</title>
<polygon fill="none" stroke="black" stroke-dasharray="1,5" points="8,-70 8,-268 1194,-268 1194,-70 8,-70"/>
</g>
<g id="clust2" class="cluster"><title>cluster_AppModule_declarations</title>
<polygon fill="none" stroke="black" points="600,-78 600,-130 1186,-130 1186,-78 600,-78"/>
</g>
<g id="clust7" class="cluster"><title>cluster_AppModule_imports</title>
<polygon fill="none" stroke="black" points="356,-78 356,-130 592,-130 592,-78 356,-78"/>
</g>
<g id="clust9" class="cluster"><title>cluster_AppModule_bootstrap</title>
<polygon fill="none" stroke="black" points="542,-208 542,-260 666,-260 666,-208 542,-208"/>
</g>
<g id="clust10" class="cluster"><title>cluster_AppModule_providers</title>
<polygon fill="none" stroke="black" points="16,-78 16,-130 348,-130 348,-78 16,-78"/>
</g>
<!-- AppComponent -->
<g id="node1" class="node"><title>AppComponent</title>
<polygon fill="#ffffb3" stroke="black" points="1177.94,-122 1072.06,-122 1072.06,-86 1177.94,-86 1177.94,-122"/>
<text text-anchor="middle" x="1125" y="-99.8" font-family="Times,serif" font-size="14.00">AppComponent</text>
</g>
<!-- AppModule -->
<g id="node5" class="node"><title>AppModule</title>
<polygon fill="#8dd3c7" stroke="black" points="645.657,-187 642.657,-191 621.657,-191 618.657,-187 562.343,-187 562.343,-151 645.657,-151 645.657,-187"/>
<text text-anchor="middle" x="604" y="-164.8" font-family="Times,serif" font-size="14.00">AppModule</text>
</g>
<!-- AppComponent&#45;&gt;AppModule -->
<g id="edge1" class="edge"><title>AppComponent&#45;&gt;AppModule</title>
<path fill="none" stroke="black" d="M1125,-122.292C1125,-144.206 1125,-178 1125,-178 1125,-178 655.755,-178 655.755,-178"/>
<polygon fill="black" stroke="black" points="655.755,-174.5 645.755,-178 655.755,-181.5 655.755,-174.5"/>
</g>
<!-- TodoItemComponent -->
<g id="node2" class="node"><title>TodoItemComponent</title>
<polygon fill="#ffffb3" stroke="black" points="1054.04,-122 917.958,-122 917.958,-86 1054.04,-86 1054.04,-122"/>
<text text-anchor="middle" x="986" y="-99.8" font-family="Times,serif" font-size="14.00">TodoItemComponent</text>
</g>
<!-- TodoItemComponent&#45;&gt;AppModule -->
<g id="edge2" class="edge"><title>TodoItemComponent&#45;&gt;AppModule</title>
<path fill="none" stroke="black" d="M986,-122.106C986,-141.339 986,-169 986,-169 986,-169 655.973,-169 655.973,-169"/>
<polygon fill="black" stroke="black" points="655.973,-165.5 645.973,-169 655.973,-172.5 655.973,-165.5"/>
</g>
<!-- TodoListComponent -->
<g id="node3" class="node"><title>TodoListComponent</title>
<polygon fill="#ffffb3" stroke="black" points="899.164,-122 766.836,-122 766.836,-86 899.164,-86 899.164,-122"/>
<text text-anchor="middle" x="833" y="-99.8" font-family="Times,serif" font-size="14.00">TodoListComponent</text>
</g>
<!-- TodoListComponent&#45;&gt;AppModule -->
<g id="edge3" class="edge"><title>TodoListComponent&#45;&gt;AppModule</title>
<path fill="none" stroke="black" d="M833,-122.027C833,-138.398 833,-160 833,-160 833,-160 655.736,-160 655.736,-160"/>
<polygon fill="black" stroke="black" points="655.736,-156.5 645.736,-160 655.736,-163.5 655.736,-156.5"/>
</g>
<!-- TodoInputComponent -->
<g id="node4" class="node"><title>TodoInputComponent</title>
<polygon fill="#ffffb3" stroke="black" points="748.437,-122 607.563,-122 607.563,-86 748.437,-86 748.437,-122"/>
<text text-anchor="middle" x="678" y="-99.8" font-family="Times,serif" font-size="14.00">TodoInputComponent</text>
</g>
<!-- TodoInputComponent&#45;&gt;AppModule -->
<g id="edge4" class="edge"><title>TodoInputComponent&#45;&gt;AppModule</title>
<path fill="none" stroke="black" d="M626.805,-122.106C626.805,-122.106 626.805,-140.991 626.805,-140.991"/>
<polygon fill="black" stroke="black" points="623.305,-140.991 626.805,-150.991 630.305,-140.991 623.305,-140.991"/>
</g>
<!-- AppComponent  -->
<g id="node8" class="node"><title>AppComponent </title>
<polygon fill="#80b1d3" stroke="black" points="658.439,-252 549.561,-252 549.561,-216 658.439,-216 658.439,-252"/>
<text text-anchor="middle" x="604" y="-229.8" font-family="Times,serif" font-size="14.00">AppComponent </text>
</g>
<!-- AppModule&#45;&gt;AppComponent  -->
<g id="edge7" class="edge"><title>AppModule&#45;&gt;AppComponent </title>
<path fill="none" stroke="black" stroke-dasharray="1,5" d="M604,-187.106C604,-187.106 604,-205.991 604,-205.991"/>
<polygon fill="black" stroke="black" points="600.5,-205.991 604,-215.991 607.5,-205.991 600.5,-205.991"/>
</g>
<!-- BrowserModule -->
<g id="node6" class="node"><title>BrowserModule</title>
<polygon fill="#8dd3c7" stroke="black" points="584.473,-122 581.473,-126 560.473,-126 557.473,-122 477.527,-122 477.527,-86 584.473,-86 584.473,-122"/>
<text text-anchor="middle" x="531" y="-99.8" font-family="Times,serif" font-size="14.00">BrowserModule</text>
</g>
<!-- BrowserModule&#45;&gt;AppModule -->
<g id="edge5" class="edge"><title>BrowserModule&#45;&gt;AppModule</title>
<path fill="none" stroke="black" d="M573.329,-122.106C573.329,-122.106 573.329,-140.991 573.329,-140.991"/>
<polygon fill="black" stroke="black" points="569.829,-140.991 573.329,-150.991 576.829,-140.991 569.829,-140.991"/>
</g>
<!-- FormsModule -->
<g id="node7" class="node"><title>FormsModule</title>
<polygon fill="#8dd3c7" stroke="black" points="459.829,-122 456.829,-126 435.829,-126 432.829,-122 364.171,-122 364.171,-86 459.829,-86 459.829,-122"/>
<text text-anchor="middle" x="412" y="-99.8" font-family="Times,serif" font-size="14.00">FormsModule</text>
</g>
<!-- FormsModule&#45;&gt;AppModule -->
<g id="edge6" class="edge"><title>FormsModule&#45;&gt;AppModule</title>
<path fill="none" stroke="black" d="M412,-122.027C412,-138.398 412,-160 412,-160 412,-160 552.339,-160 552.339,-160"/>
<polygon fill="black" stroke="black" points="552.339,-163.5 562.339,-160 552.339,-156.5 552.339,-163.5"/>
</g>
<!-- TodoRepoService -->
<g id="node9" class="node"><title>TodoRepoService</title>
<ellipse fill="#fdb462" stroke="black" cx="259" cy="-104" rx="80.5219" ry="18"/>
<text text-anchor="middle" x="259" y="-99.8" font-family="Times,serif" font-size="14.00">TodoRepoService</text>
</g>
<!-- TodoRepoService&#45;&gt;AppModule -->
<g id="edge8" class="edge"><title>TodoRepoService&#45;&gt;AppModule</title>
<path fill="none" stroke="black" d="M259,-122.106C259,-141.339 259,-169 259,-169 259,-169 552.041,-169 552.041,-169"/>
<polygon fill="black" stroke="black" points="552.041,-172.5 562.041,-169 552.041,-165.5 552.041,-172.5"/>
</g>
<!-- LoggerService -->
<g id="node10" class="node"><title>LoggerService</title>
<ellipse fill="#fdb462" stroke="black" cx="92" cy="-104" rx="67.7567" ry="18"/>
<text text-anchor="middle" x="92" y="-99.8" font-family="Times,serif" font-size="14.00">LoggerService</text>
</g>
<!-- LoggerService&#45;&gt;AppModule -->
<g id="edge9" class="edge"><title>LoggerService&#45;&gt;AppModule</title>
<path fill="none" stroke="black" d="M92,-122.292C92,-144.206 92,-178 92,-178 92,-178 552.101,-178 552.101,-178"/>
<polygon fill="black" stroke="black" points="552.101,-181.5 562.101,-178 552.101,-174.5 552.101,-181.5"/>
</g>
</g>
</svg>
