<?xml version="1.0" encoding="UTF-8" standalone="no"?>
<!-- Generator: Adobe Illustrator 12.0.0, SVG Export Plug-In . SVG Version: 6.00 Build 51448)  -->

<svg
   xmlns:dc="http://purl.org/dc/elements/1.1/"
   xmlns:cc="http://creativecommons.org/ns#"
   xmlns:rdf="http://www.w3.org/1999/02/22-rdf-syntax-ns#"
   xmlns:svg="http://www.w3.org/2000/svg"
   xmlns="http://www.w3.org/2000/svg"
   xmlns:sodipodi="http://sodipodi.sourceforge.net/DTD/sodipodi-0.dtd"
   xmlns:inkscape="http://www.inkscape.org/namespaces/inkscape"
   id="Layer_1"
   space="preserve"
   sodipodi:docname="signore-architetto-fran-01r.svg"
   viewBox="0 0 120 120"
   sodipodi:version="0.32"
   version="1.1"
   inkscape:output_extension="org.inkscape.output.svg.inkscape"
   inkscape:version="0.48.5 r10040"
   width="100%"
   height="100%"
   inkscape:export-filename="C:\CourseAngular2\git\course-angular2\ng2-components-06\src\assets\img\operator_m.png"
   inkscape:export-xdpi="30"
   inkscape:export-ydpi="30">
  <defs
     id="defs214">
    <linearGradient
       id="XMLID_21_"
       y2="472.53"
       gradientUnits="userSpaceOnUse"
       y1="472.53"
       gradientTransform="matrix(0,-132.47,-132.47,0,62635,-35007.238)"
       x2="-263.48001"
       x1="-265.14999">
      <stop
         id="stop16"
         style="stop-color:#7FB5F7"
         offset="0" />
      <stop
         id="stop18"
         style="stop-color:#063DA7"
         offset="1" />
    </linearGradient>
    <linearGradient
       id="XMLID_22_"
       y2="472.54999"
       gradientUnits="userSpaceOnUse"
       y1="472.54999"
       gradientTransform="matrix(0,-132.47,-132.47,0,62635,-35007.238)"
       x2="-263.47"
       x1="-265.16">
      <stop
         id="stop23"
         style="stop-color:#7ED8FC"
         offset="0" />
      <stop
         id="stop25"
         style="stop-color:#0649AA"
         offset="1" />
    </linearGradient>
    <linearGradient
       id="XMLID_23_"
       y2="472.53"
       gradientUnits="userSpaceOnUse"
       y1="472.53"
       gradientTransform="matrix(0,-132.47,-132.47,0,62635,-35007.238)"
       x2="-263.47"
       x1="-265.16">
      <stop
         id="stop30"
         style="stop-color:#5471AF"
         offset="0" />
      <stop
         id="stop32"
         style="stop-color:#042676"
         offset="1" />
    </linearGradient>
    <linearGradient
       id="XMLID_24_"
       y2="472.53"
       gradientUnits="userSpaceOnUse"
       y1="472.53"
       gradientTransform="matrix(0,-132.47,-132.47,0,62635,-35007.238)"
       x2="-263.47"
       x1="-265.14999">
      <stop
         id="stop37"
         style="stop-color:#68A0F2"
         offset="0" />
      <stop
         id="stop39"
         style="stop-color:#0536A3"
         offset="1" />
    </linearGradient>
    <radialGradient
       id="XMLID_29_"
       gradientUnits="userSpaceOnUse"
       cy="466.57001"
       cx="-325.75"
       gradientTransform="matrix(16.729,-0.005,-0.005,-16.729,5488.5,7860.662)"
       r="1.6703">
      <stop
         id="stop94"
         style="stop-color:#B9DAF4"
         offset="0" />
      <stop
         id="stop96"
         style="stop-color:#7A97CB"
         offset="1" />
    </radialGradient>
    <linearGradient
       id="XMLID_30_"
       y2="543.15002"
       gradientUnits="userSpaceOnUse"
       y1="543.15002"
       gradientTransform="matrix(-0.9918,-12.804,-12.804,0.9918,6744.6,-3761.038)"
       x2="-255.81"
       x1="-257.44">
      <stop
         id="stop111"
         style="stop-color:#FFFFFF"
         offset="0" />
      <stop
         id="stop113"
         style="stop-color:#FDFEFF"
         offset=".4625" />
      <stop
         id="stop115"
         style="stop-color:#F6FAFF"
         offset=".6291" />
      <stop
         id="stop117"
         style="stop-color:#EBF4FF"
         offset=".7478" />
      <stop
         id="stop119"
         style="stop-color:#DAEAFF"
         offset=".8438" />
      <stop
         id="stop121"
         style="stop-color:#C4DEFF"
         offset=".9251" />
      <stop
         id="stop123"
         style="stop-color:#A9D0FF"
         offset=".9967" />
      <stop
         id="stop125"
         style="stop-color:#A8CFFF"
         offset="1" />
    </linearGradient>
    <linearGradient
       id="XMLID_31_"
       y2="460.09"
       gradientUnits="userSpaceOnUse"
       y1="460.09"
       gradientTransform="matrix(100.55,113.72,113.72,-100.55,-25192,76915.762)"
       x2="-268.41"
       x1="-270.07999">
      <stop
         id="stop142"
         style="stop-color:#FFD8BF"
         offset="0" />
      <stop
         id="stop144"
         style="stop-color:#BF7400"
         offset=".5393" />
      <stop
         id="stop146"
         style="stop-color:#000000"
         offset="1" />
    </linearGradient>
    <linearGradient
       id="XMLID_32_"
       y2="455.76999"
       gradientUnits="userSpaceOnUse"
       y1="455.76999"
       gradientTransform="matrix(25.13,103.51,103.51,-25.13,-40422,39125.762)"
       x2="-266.57001"
       x1="-268.26999">
      <stop
         id="stop153"
         style="stop-color:#FFD8BF"
         offset="0" />
      <stop
         id="stop155"
         style="stop-color:#BF7400"
         offset=".5393" />
      <stop
         id="stop157"
         style="stop-color:#000000"
         offset="1" />
    </linearGradient>
    <linearGradient
       id="XMLID_33_"
       y2="460.10001"
       gradientUnits="userSpaceOnUse"
       y1="460.10001"
       gradientTransform="matrix(100.55,113.72,113.72,-100.55,-25192,76915.762)"
       x2="-268.39999"
       x1="-270.09">
      <stop
         id="stop172"
         style="stop-color:#F3C192"
         offset="0" />
      <stop
         id="stop174"
         style="stop-color:#D49035"
         offset=".5393" />
      <stop
         id="stop176"
         style="stop-color:#765735"
         offset="1" />
    </linearGradient>
    <linearGradient
       id="XMLID_34_"
       y2="455.76999"
       gradientUnits="userSpaceOnUse"
       y1="455.76999"
       gradientTransform="matrix(25.13,103.51,103.51,-25.13,-40422,39125.762)"
       x2="-266.57999"
       x1="-268.26001">
      <stop
         id="stop183"
         style="stop-color:#F3C192"
         offset="0" />
      <stop
         id="stop185"
         style="stop-color:#D49035"
         offset=".5393" />
      <stop
         id="stop187"
         style="stop-color:#765735"
         offset="1" />
    </linearGradient>
    <radialGradient
       id="XMLID_35_"
       gradientUnits="userSpaceOnUse"
       cy="466.06"
       cx="-296.48999"
       gradientTransform="matrix(32.319,0,0,-32.319,9620.6,15095.762)"
       r="1.6849999">
      <stop
         id="stop192"
         style="stop-color:#FFFA5F"
         offset="0" />
      <stop
         id="stop194"
         style="stop-color:#9F3300"
         offset="1" />
    </radialGradient>
    <linearGradient
       id="XMLID_36_"
       y2="440.47"
       gradientUnits="userSpaceOnUse"
       y1="440.47"
       gradientTransform="matrix(11.5,4.0001,4.0001,-11.5,2213.4,6468.662)"
       x2="-344.60001"
       x1="-346.29001">
      <stop
         id="stop201"
         style="stop-color:#FFFFFF"
         offset="0" />
      <stop
         id="stop203"
         style="stop-color:#818181"
         offset="1" />
    </linearGradient>
  </defs>
  <sodipodi:namedview
     id="base"
     bordercolor="#666666"
     inkscape:pageshadow="2"
     inkscape:window-width="787"
     pagecolor="#ffffff"
     inkscape:zoom="2.6424354"
     inkscape:window-x="88"
     borderopacity="1.0"
     inkscape:current-layer="Layer_1"
     inkscape:cx="41.040243"
     inkscape:cy="68.119026"
     inkscape:window-y="116"
     inkscape:window-height="705"
     inkscape:pageopacity="0.0"
     showgrid="false"
     inkscape:window-maximized="0" />
  <g
     id="g3068"
     transform="matrix(1.0276634,0,0,0.88333314,17.786624,14.378429)">
    <path
       inkscape:connector-curvature="0"
       d="m 81.112,88.112 c 0,22.97 -22.022,31.07 -41.758,30.56 -21.918,-0.56 -41.092,-11.95 -38.2,-36.133 2.489,-20.824 18.881,-44.701 42.179,-43.32 23.758,1.407 37.779,27.432 37.779,48.893"
       style="fill:#5691ff"
       id="path5" />
    <path
       inkscape:connector-curvature="0"
       d="m 41.482,40.04 c -22.668,0 -37.951,23.9 -39.639,44.332 -1.95,23.64 18.663,33.43 39.471,33.43 -18.877,0 -39.17,-8.46 -38.221,-30.27 0.909,-20.892 17.266,-37.366 38.374,-37.366 20.104,0 35.56,14.75 37.217,34.666 1.901,22.88 -16.798,32.97 -37.339,32.97 20.093,0 39.72,-9.34 38.831,-32.01 C 79.358,64.894 64.813,40.04 41.482,40.04"
       style="fill:#55b4ff"
       id="path7" />
    <path
       inkscape:connector-curvature="0"
       d="m 12.218,54.044 c -12.674,15.872 -19.631,44.858 0.201,58.088 16.13,10.76 45.612,10.98 60.429,-2.43 C 88.482,95.552 81.909,68.544 70.481,53.896 54.775,33.768 28.09,34.213 12.218,54.044 M 1.533,88.822 c 0,-22.32 16.523,-50.331 41.712,-48.867 22.688,1.318 36.308,25.442 37.084,45.987 0.823,21.82 -17.098,31.45 -36.808,31.97 -18.83,0.49 -41.988,-6.56 -41.988,-29.09"
       style="fill:#2b4ddd"
       id="path9" />
    <path
       inkscape:connector-curvature="0"
       d="m 41.418,106.992 c -13.387,0 -29.547,-2.01 -39.309,-12.25 3.43,17.07 21.658,22.75 36.991,23.17 16.438,0.45 36.641,-4.41 40.572,-22.94 -9.476,10.07 -25.179,12.02 -38.254,12.02"
       style="fill:#3f7cff"
       id="path11" />
    <path
       inkscape:connector-curvature="0"
       d="m 41.482,39.603 c 21.281,0 35.308,21.513 37.542,40.673 2.584,22.156 -12.88,34.196 -33.755,35.336 -18.738,1.01 -42.75,-5.85 -42.75,-28.48 0,-20.729 14.254,-45.895 36.962,-47.47 -22.745,1.539 -37.371,26.176 -38.208,46.98 -0.954,23.68 21.856,32.11 42.054,31.59 20.956,-0.54 38.928,-11.42 37.188,-34.37 C 78.957,63.331 64.324,39.603 41.482,39.603"
       style="fill:#3f7cff"
       id="path13" />
    <path
       inkscape:connector-curvature="0"
       d="m 49.752,59.852 c -2.299,2.819 -5.076,5.638 -8.507,3.118 -2.287,2.174 -3.334,2.181 -1.469,5.102 1.594,2.489 1.637,4.199 4.82,3.992 3.443,-0.227 9.239,-0.483 10.478,-4.068 0.915,-2.647 2.06,-3.489 -0.508,-5.266 -1.536,-1.066 -3.151,-2.023 -4.814,-2.878 m 16.045,-0.73 c -0.61,0.342 -1.219,0.684 -1.826,1.029 1.439,0.507 1.087,0.721 1.826,-1.029 M 19.774,56.586 c -3.827,2.556 -1.375,4.233 1.615,6.967 1.527,1.394 2.867,3.555 4.673,1.992 1.213,-1.049 2.717,-2.006 3.705,-3.285 -3.602,-1.118 -10.258,-0.125 -9.993,-5.674 m 2.94,-10.455 c -1.279,0.895 -7.699,5.157 -7.49,6.825 2.273,-2.536 4.861,-4.68 7.49,-6.825 m 36.175,-0.94 c -0.75,0.474 0.945,0.868 1.442,0.97 -0.48,-0.322 -0.962,-0.648 -1.442,-0.97"
       style="fill:url(#XMLID_21_)"
       id="path20" />
    <path
       inkscape:connector-curvature="0"
       d="m 58.891,47.97 c -0.528,0.372 -1.056,0.743 -1.586,1.118 0.486,0.312 0.975,0.625 1.461,0.937 0.042,-0.684 0.083,-1.371 0.125,-2.055 M 21.547,47.124 c -4.602,3.463 -7.734,5.766 -4.384,11.377 3.241,-2.602 3.532,-6.075 6.209,-9.41 -0.628,-0.414 -2.716,-1.184 -1.825,-1.967 M 58.75,45.276 c -0.289,0.174 -0.581,0.349 -0.869,0.52 2.346,1.842 0.385,0.365 2.143,0.333 C 59.6,45.845 59.175,45.563 58.75,45.276"
       style="fill:url(#XMLID_22_)"
       id="path27" />
    <path
       inkscape:connector-curvature="0"
       d="m 23.914,45.148 c -2.872,1.901 -5.479,4.183 -7.803,6.719 0.692,-0.73 7.14,-7.16 7.803,-6.719 m 35.074,-0.02 c -0.668,0.435 0.972,0.898 1.529,1.082 -0.508,-0.358 -1.019,-0.72 -1.529,-1.082 M 22.687,44.336 c -2.604,1.729 -7.667,4.63 -7.505,8.051 2.541,-2.79 5.414,-5.286 8.589,-7.328 -0.363,-0.243 -0.723,-0.483 -1.084,-0.723 m 37.54,-0.03 c -0.358,0.239 -0.715,0.477 -1.073,0.717 2.943,1.917 5.533,4.167 7.906,6.761 -0.204,-3.446 -4.13,-5.679 -6.833,-7.478"
       style="fill:url(#XMLID_23_)"
       id="path34" />
    <path
       inkscape:connector-curvature="0"
       d="m 65.606,50.265 c 0.487,0.592 0.978,1.187 1.467,1.779 0.017,-0.812 -0.474,-1.404 -1.467,-1.779 M 23.771,45.059 c -1.819,1.171 -8.77,5.476 -8.554,7.814 0.91,-1.055 7.807,-8.304 8.554,-7.814 m 35.382,-0.036 c -0.723,0.46 2.187,1.568 2.52,1.789 -0.816,-0.632 -1.657,-1.226 -2.52,-1.789"
       style="fill:url(#XMLID_24_)"
       id="path41" />
    <path
       inkscape:connector-curvature="0"
       d="M 57.242,43.224 C 47.189,36.153 34.1,37.307 23.841,43.619 c 2.919,4.551 6.257,8.847 10.004,12.748 2.182,2.269 6.107,7.137 9.39,7.791 7.419,1.483 13.308,-16.05 14.007,-20.934"
       style="fill:#f4f4f4"
       id="path43" />
    <path
       inkscape:connector-curvature="0"
       d="m 26.949,46.845 c 0.338,2.302 1.538,2.453 3.002,1.286 -1.022,-0.378 -2.022,-0.806 -3.002,-1.286 m 29.603,-0.322 c -0.62,0.296 -1.239,0.592 -1.859,0.888 0.443,0.283 0.888,0.569 1.332,0.855 0.174,-0.582 0.351,-1.161 0.527,-1.743 M 25.479,46.079 c 0.365,0.53 0.622,0.342 0,0"
       style="fill:url(#XMLID_29_)"
       id="path98" />
    <path
       inkscape:connector-curvature="0"
       d="m 33.73,58.451 c 0,-2.667 19.451,0.125 21.361,0.539 2.826,0.618 4.326,0.971 3.703,4.046 -0.863,4.262 -2.514,8.442 -4.229,12.421 -1.072,2.486 -2.679,7.614 -5.361,8.915 -1.754,0.85 -4.552,-4.481 -5.178,-5.478 -2.52,-4.006 -4.752,-8.202 -6.856,-12.438 -1.057,-2.131 -3.44,-5.518 -3.44,-8.005"
       style="fill:#d6dbff"
       id="path100" />
    <path
       inkscape:connector-curvature="0"
       d="m 50.306,63.845 c 1.025,2.654 4.164,8.347 3.134,11.172 -1.019,2.792 -3.354,11.485 -6.845,7.531 -4.051,-4.591 -4.409,-7.113 -2.89,-12.747 1.473,-5.453 1.021,-5.538 6.601,-5.956"
       style="fill:#5691ff"
       id="path102" />
    <path
       inkscape:connector-curvature="0"
       d="m 50.231,62.871 c -5.378,0.408 -5.572,-0.197 -6.993,4.937 -1.854,6.69 -2.21,10.018 2.751,15.526 4.294,4.778 7.005,-4.37 8.248,-7.665 0.947,-2.513 -1.686,-12.225 -4.006,-12.798 m -0.58,2 c 2.556,6.686 4.179,12.175 -1.239,18.091 -2.041,-1.473 -5.481,-5.659 -4.911,-8.353 0.456,-2.147 1.063,-4.266 1.648,-6.381 0.926,-3.347 1.171,-3.107 4.502,-3.357"
       style="fill:#2b4ddd"
       id="path104" />
    <path
       inkscape:connector-curvature="0"
       d="m 42.163,59.988 c 0.972,-0.757 3.157,-3.26 4.333,-3.371 0.666,-0.063 4.449,1.736 4.519,2.338 0.805,6.936 -6.652,6.39 -8.852,1.033"
       style="fill:#5691ff"
       id="path106" />
    <path
       inkscape:connector-curvature="0"
       d="m 45.896,55.843 c -0.843,0.658 -5.12,3.253 -4.773,4.154 1.115,2.9 3.563,5.877 7.026,5.354 7.033,-1.066 3.919,-10.754 -2.253,-9.508 m 0.732,1.908 c 1.149,0.525 2.297,1.055 3.447,1.578 0.111,1.628 -0.157,3.786 -2.219,4.088 -1.651,0.254 -2.975,-0.854 -3.853,-2.102 -1.198,-1.702 1.29,-2.519 2.625,-3.564"
       style="fill:#2b4ddd"
       id="path108" />
    <path
       inkscape:connector-curvature="0"
       d="m 53.317,47.973 c -3.777,1.454 -7.819,2.194 -11.866,2.194 -4.659,0 -8.498,-2.01 -12.785,-0.148 2.869,5.048 5.976,9.966 9.083,14.869 1.629,-1.888 6.117,-7.502 8.946,-7.766 2.743,-0.256 8.024,4.145 9.965,5.621 0.758,-2.927 1.33,-5.9 1.716,-8.896 0.468,-3.641 -2.208,-4.042 -5.059,-5.874"
       style="fill:url(#XMLID_30_)"
       id="path127" />
    <path
       inkscape:connector-curvature="0"
       d="m 45.104,41.557 c -7.28,3.157 -14.559,6.314 -21.838,9.472 4.505,5.992 8.49,12.169 12.502,18.506 2.708,-4.196 8.405,-12.517 13.745,-9.804 1.9,0.964 9.105,7.367 10.564,6.923 2.576,-0.793 3.386,-7.814 3.84,-9.926 1.025,-4.785 -3.376,-5.561 -7.259,-8.054 -3.342,-2.148 -7.805,-6.243 -11.554,-7.117 m 0.182,1.259 c 4.099,2.657 8.222,5.282 12.333,7.919 1.782,1.145 3.563,2.289 5.348,3.431 0.781,0.503 -1.822,10.323 -3.192,11.261 C 57.482,63.17 50.409,56.718 46.696,57.122 43.047,57.517 37.676,64.746 35.815,67.334 32.41,61.921 29,56.649 25.175,51.529 c 6.71,-2.885 13.401,-5.822 20.111,-8.713"
       style="fill:#6e92f9"
       id="path129" />
    <path
       inkscape:connector-curvature="0"
       d="m 26.16,47.437 c 6.3,12.491 14.626,24.167 22.325,35.825 5.254,-7.044 8.396,-15.868 10.073,-24.409 0.752,-3.822 1.194,-7.703 1.338,-11.597 0.021,-0.556 3.85,2.529 4.052,2.727 1.376,1.342 3.988,3.792 3.633,5.985 -0.356,2.184 -5.213,2.658 -5.213,4.306 0,2.016 7.429,0.881 5.748,4.479 -1.812,3.873 -4.862,7.383 -7.648,10.573 -3.149,3.611 -9.471,12.146 -14.171,9.426 C 40.38,81.318 34.547,77.559 29.341,73.102 28.4,72.3 24.138,69.31 25.316,67.669 c 0.881,-1.227 8.026,-5.601 4.31,-6.47 -2.94,-0.687 -9.074,-0.059 -8.876,-4.505 0.154,-3.511 3.064,-6.863 5.41,-9.257"
       style="fill:#5691ff"
       id="path131" />
    <path
       inkscape:connector-curvature="0"
       d="m 25.479,46.74 c -2.604,2.552 -5.714,6.318 -5.714,10.156 0,5.271 6.525,4.285 10.002,5.364 -4.31,5.584 -7.897,5.598 -1.545,11.182 2.894,2.546 6.039,4.809 9.235,6.952 2.125,1.428 8.785,7.158 11.255,6.858 2.019,-0.25 5.28,-3.983 6.715,-5.313 3.395,-3.138 6.506,-6.597 9.314,-10.268 4.098,-5.354 6.995,-8.791 -0.771,-11.521 5.012,-2.99 5.754,-5.466 1.575,-9.949 -1.213,-1.302 -3.464,-3.907 -5.397,-4.068 -2.053,-0.17 -1.658,6.894 -1.846,8.275 -1.295,9.479 -4.398,19.144 -9.789,27.126 -7.632,-11.58 -16.056,-23.216 -22.081,-35.736 -0.317,0.317 -0.636,0.63 -0.953,0.942 m 3.077,19.262 C 33.848,61.664 31.37,60.481 25.795,59.612 18.924,58.547 22.75,52.672 25.933,49.104 32.55,61.428 40.547,73.145 48.301,84.782 42.272,81.354 36.362,77.598 30.988,73.201 27.697,70.508 24.651,69.202 28.556,66.002 m 20.684,17.87 c 7.674,-9.51 10.909,-23.438 11.549,-35.298 2.443,1.75 8.326,6.289 4.105,8.817 -8.143,4.878 1.146,2.842 2.563,6.443 -0.484,3.229 -4.614,7.163 -6.588,9.508 -3.466,4.118 -7.692,9.055 -12.402,11.53 0.259,-0.34 0.516,-0.67 0.773,-1"
       style="fill:#2b4ddd"
       id="path133" />
    <path
       inkscape:connector-curvature="0"
       d="m 72.611,19.387 c 0,16.819 -14.704,29.945 -31.16,29.945 -16.456,0 -31.159,-13.125 -31.159,-29.945 0,-16.824 14.695,-29.961 31.159,-29.961 16.466,0 31.16,13.135 31.16,29.961"
       style="fill:#fcd095"
       id="path135" />
    <path
       inkscape:connector-curvature="0"
       d="M 20.552,8.142 C 27.657,-0.176 40.05,-2.233 50.235,0.578 61.402,3.66 67.073,12.687 68.761,23.675 71.243,7.336 57.601,-6.832 41.45,-6.832 25.281,-6.832 11.665,7.347 14.141,23.689 14.984,18.213 16.912,12.417 20.552,8.142"
       style="fill:#ffe2ae"
       id="path137" />
    <path
       inkscape:connector-curvature="0"
       d="M 71.489,15.779 C 69.76,29.082 62.459,39.255 48.56,41.682 31.55,44.655 13.708,33.772 11.414,15.783 8.908,34.242 25.441,49.578 43.439,48.45 60.072,47.408 73.652,32.654 71.489,15.779"
       style="fill:#fabb78"
       id="path139" />
    <path
       inkscape:connector-curvature="0"
       d="m 11.379,15.854 c -0.813,1.694 -0.388,4.029 -0.133,5.782 -0.153,-1.924 -0.108,-3.868 0.133,-5.782 M 71.03,13.079 C 74.932,29.99 62.204,46.154 45.394,48.266 36.197,49.424 26.74,46.417 20.037,39.981 13.995,34.176 12.323,26.566 9.429,19.254 c 0,17.46 15.024,30.912 32.021,30.912 19.038,0 35.268,-17.132 31.47,-36.502 0.16,0.365 0.134,0.678 -0.081,0.944 -0.705,-0.381 -1.307,-0.891 -1.809,-1.529 m 1.146,-1.737 c 0.034,0.744 0.034,0.744 0,0 m -0.031,-0.519 c 0.034,0.558 0.034,0.558 0,0 M 72.12,10.52 c 0.023,0.283 0.008,0.075 0,0"
       style="fill:url(#XMLID_31_)"
       id="path148" />
    <path
       inkscape:connector-curvature="0"
       d="m 63.622,-6.239 c 5.319,5.408 8.267,10.125 8.579,18.137 -0.016,-0.474 -6,-5.621 -6.912,-6.364 C 63.048,3.706 60.464,7.61 58.276,8.728 52.745,11.557 44.338,13.714 38.244,11.698 34.987,10.622 31.207,8.439 27.679,9.511 25.637,10.133 24.331,11.915 23.522,13.799 22.7,15.71 22.581,23.376 21.34,24.186 20.868,24.491 16.864,15.408 16.331,14.599 9.84,4.771 9.998,21.943 10.771,21.748 6.598,22.787 9.858,5.143 10.475,3.758 c 2.931,-6.581 8.27,-11.659 14.725,-14.747 11.676,-5.586 28.907,-4.993 38.422,4.75"
       style="fill:#c48e53"
       id="path150" />
    <path
       inkscape:connector-curvature="0"
       d="m 8.384,14.052 c 0.077,1.786 1.136,3.766 1.136,5.424 -0.226,-0.53 1.01,2.457 1.264,2.265 0.409,-2.72 -1.855,-5.035 -2.4,-7.689 M 63.417,1.995 c -0.721,0 -3.177,2.711 -3.924,3.174 -2.185,1.352 -4.615,2.295 -7.086,2.98 -6.548,1.815 -11.752,1.105 -18.231,0.036 -3.759,-0.618 -7.025,-2.871 -9.781,0.793 -1.062,1.411 -3.777,12.553 -3.482,12.553 -1.411,0 -4.004,-8.16 -4.756,-9.373 -0.889,-1.438 -3.605,-3.591 -5.321,-2.227 -1.774,1.408 -0.872,5.2 -0.59,7.035 -0.751,-3.993 1.699,-5.624 5.019,-3.552 1.301,1.246 4.823,10.945 6.019,10.797 0.411,-0.095 1.97,-10.09 2.811,-11.573 1.166,-2.063 3.036,-3.384 5.443,-3.384 4.122,0.141 7.688,3.068 11.764,3.068 5.175,0 10.479,-0.783 15.271,-2.802 1.598,-0.674 5.926,-4.838 7.173,-4.838 3.266,-0.635 5.41,7.404 8.341,7.404 0.459,0 -0.302,-4.381 -0.354,-4.673 0.413,0.763 0.419,1.427 0.021,1.993 C 68.651,9.405 66.9,1.995 63.417,1.995"
       style="fill:url(#XMLID_32_)"
       id="path159" />
    <path
       inkscape:connector-curvature="0"
       d="m 59.351,2.443 c 0,9.547 -35.024,8.686 -35.024,0.637 6.436,1.407 13.557,2.576 20.138,1.896 1.709,-0.179 14.886,-4.899 14.886,-2.533"
       style="fill:#d8ac77"
       id="path161" />
    <path
       inkscape:connector-curvature="0"
       d="m 71.406,5.751 c 0.609,2.588 0.999,5.299 1.515,7.914 C 72.755,10.981 72.317,8.29 71.406,5.751"
       style="fill:#f3d4b2"
       id="path163" />
    <path
       inkscape:connector-curvature="0"
       d="m 12.264,12.276 c -0.528,0 -0.836,3.203 -0.885,3.578 -0.09,0.191 0.035,-0.089 0.035,-0.072 0.582,-1.128 1.774,-1.125 2.83,-0.741 0.385,-2.068 0.415,-2.765 -1.98,-2.765 M 61.336,6.81 C 57.687,9.632 52.997,11.04 48.504,11.76 41.925,12.819 38.364,11.135 32.129,9.606 23.846,7.574 22.12,16.7 21.645,23.067 c 0.149,0.612 0.017,0.993 -0.398,1.147 -2.193,-2.625 -2.904,-6.314 -4.689,-9.258 -0.333,0.809 4.18,11.774 5.446,11.774 2.313,0 0.169,-16.826 10.332,-14.734 6.244,1.282 10.115,3.344 16.749,2.308 4.873,-0.763 10.139,-2.325 13.884,-5.695 -0.51,-0.631 -1.053,-1.23 -1.633,-1.799 m 3.021,-1.924 c 2.12,3.006 4.094,5.522 6.673,8.193 C 70.298,9.902 67.279,6.478 64.357,4.886"
       style="fill:#f2bd7e"
       id="path165" />
    <path
       inkscape:connector-curvature="0"
       d="m 14.691,13.079 c -0.822,3.042 -0.695,1.279 1.447,2.943 0.562,-1.506 -0.133,-2.217 -1.447,-2.943 M 63.744,4.682 c -0.658,0 -1.923,1.753 -2.408,2.128 0.58,0.569 1.123,1.168 1.631,1.8 C 64.614,7.13 64.597,6.771 66.45,8.409 66.025,7.547 64.982,4.682 63.744,4.682"
       style="fill:#f3c58a"
       id="path167" />
    <path
       inkscape:connector-curvature="0"
       d="m 11.247,21.636 c 0.108,0.862 0.215,1.724 0.324,2.585 -0.04,-0.868 -0.149,-1.73 -0.324,-2.585 m 0.167,-5.857 v 0"
       style="fill:#f1b26f"
       id="path169" />
    <path
       inkscape:connector-curvature="0"
       d="m 12.067,12.286 c -2.128,0.194 -1.916,3.371 -1.805,4.795 -0.003,-0.02 0.757,4.505 0.521,4.66 -0.395,-0.733 -0.927,-1.43 -1.261,-2.252 0.125,0.569 1.113,4.792 1.998,4.792 -1.466,0 0.244,-10.834 0.547,-11.995 M 72.123,10.52 c 0.033,0.46 0.059,0.917 0.078,1.377 0.019,0.119 -0.021,0.181 -0.116,0.188 -0.678,-0.362 -1.259,-0.849 -1.74,-1.464 0.28,0.849 0.776,3.986 2.495,3.986 0.512,0.001 -0.644,-3.85 -0.717,-4.087"
       style="fill:url(#XMLID_33_)"
       id="path178" />
    <path
       inkscape:connector-curvature="0"
       d="m 21.384,24.149 c -0.04,0.043 -0.085,0.066 -0.138,0.066 0.046,-0.023 0.092,-0.047 0.138,-0.066 M 10.689,21.708 c 0.025,0.014 0.049,0.027 0.074,0.04 -0.025,-0.013 -0.049,-0.026 -0.074,-0.04 M 10.02,20.584 c 0.066,0.125 0.132,0.253 0.197,0.378 -0.066,-0.125 -0.132,-0.253 -0.197,-0.378 M 9.829,20.193 c 0.107,0.216 0.107,0.216 0,0 M 9.643,19.778 c 0.14,0.313 0.14,0.313 0,0 M 9.521,19.479 c 0,0.013 0.196,0.496 0,0 m 2.743,-7.203 c -0.367,0.118 -0.731,0.237 -1.099,0.355 1.608,-0.753 4.512,1.042 4.098,0.783 -0.904,-0.648 -1.904,-1.029 -2.999,-1.138 m 59.895,-0.213 c -0.025,0.006 -0.05,0.016 -0.074,0.023 0.024,-0.007 0.049,-0.017 0.074,-0.023 m 0.011,-0.82 c 0.007,0.132 0.007,0.132 0,0 m -0.037,-0.588 c 0.014,0.224 0.014,0.224 0,0 M 29.723,9.254 c 1.674,0.118 3.292,0.486 4.853,1.108 C 33.017,9.806 31.392,9.3 29.723,9.254 m -0.187,0 c -0.239,0 -0.239,0 0,0 M 68.23,8.382 C 68.652,8.833 69.077,9.283 69.5,9.734 69.077,9.283 68.655,8.833 68.23,8.382 m 3.153,-2.696 c 0.362,1.542 0.604,3.101 0.727,4.68 C 72.037,9.451 71.734,6.603 71.383,5.686 M 63.744,4.682 c -0.313,0.089 -0.313,0.089 0,0"
       style="fill:#d69c5d"
       id="path180" />
    <path
       inkscape:connector-curvature="0"
       d="m 10.784,21.741 c -0.028,0.01 -0.028,0.01 0,0 M 9.52,19.476 c 0,0.522 0.903,1.986 1.169,2.232 C 10.208,21.014 9.817,20.272 9.52,19.476 m 0.955,-0.484 c 0,-0.994 0.416,2.67 0.309,2.749 0.02,-0.927 -0.084,-1.845 -0.309,-2.749 m 5.202,-5.232 c 1.042,1.348 4.165,10.455 5.569,10.455 -2.731,-2.806 -2.779,-7.591 -5.569,-10.455 m -0.413,-0.346 m -4.098,-0.782 c -1.133,0.904 -1.116,3.223 -0.903,4.45 -0.102,-1.29 -0.288,-3.49 0.903,-4.45 m 61.035,-0.734 c -0.056,0.217 -0.056,0.217 0,0 M 69.5,9.734 c 0.464,0.572 1.776,2.352 2.585,2.352 C 71.09,11.457 70.228,10.672 69.5,9.734 M 29.356,9.254 c -2.335,0.055 -4.134,1.387 -5.264,3.384 -0.841,1.482 -2.399,11.478 -2.811,11.573 0.375,-0.197 0.495,-0.579 0.362,-1.144 0.335,-4.752 1.261,-13.662 7.713,-13.813 m 0.18,0 C 29.917,9.25 30.297,9.277 30.675,9.329 30.295,9.303 29.916,9.277 29.536,9.254 M 63.509,4.748 c -4.37,2.914 -7.434,5.437 -12.866,6.61 -7.437,1.608 -11.796,-0.243 -18.807,-1.822 6.264,1.415 9.976,3.289 16.602,2.233 6.354,-1.009 10.007,-3.647 15.071,-7.021 m 0.236,-0.066 c -10e-4,0 -10e-4,0 0,0 1.894,0.753 3.253,2.438 4.649,3.875 C 67.496,7.633 65.336,4.682 63.745,4.682"
       style="fill:url(#XMLID_34_)"
       id="path189" />
    <path
       inkscape:connector-curvature="0"
       d="M 9.21,16.683 C 9.21,-2.023 27.629,-14.592 45.221,-12.565 64.414,-10.352 79.25,9.194 70.753,27.997 82.32,7.191 62.909,-16.238 41.124,-16.238 19.337,-16.238 0.132,7.264 11.663,28 10.059,24.451 9.21,20.581 9.21,16.683"
       style="fill:url(#XMLID_35_)"
       id="path196" />
    <path
       inkscape:connector-curvature="0"
       d="m 20.649,24.587 c 0,4.933 -2.434,12.908 -8.607,12.908 -6.172,0 -8.607,-7.976 -8.607,-12.908 0,-4.937 2.434,-12.912 8.607,-12.912 6.173,0 8.607,7.975 8.607,12.912"
       style="fill:#ffffff"
       id="path198" />
    <path
       inkscape:connector-curvature="0"
       d="m 2.936,24.718 c 0.29,5.288 3.246,14.026 9.878,13.928 6.645,-0.099 8.619,-9.058 8.337,-14.191 -0.29,-5.292 -3.246,-14.027 -9.879,-13.932 -6.648,0.095 -8.62,9.061 -8.336,14.195 m 1.486,-0.023 c -0.235,-4.289 1.186,-12.514 6.937,-12.6 5.737,-0.082 8.063,7.942 8.306,12.379 C 19.9,28.766 18.477,36.988 12.727,37.073 6.991,37.156 4.664,29.135 4.422,24.695"
       style="fill:url(#XMLID_36_)"
       id="path205" />
    <path
       inkscape:connector-curvature="0"
       d="m 11.659,24.587 c 0,10.244 -11.092,10.244 -11.092,0 0,-10.249 11.092,-10.249 11.092,0"
       style="fill:#5e5d5d"
       id="path207" />
    <path
       inkscape:connector-curvature="0"
       d="M 0.245,24.672 C 0.841,35.565 12.601,35.844 11.981,24.501 11.386,13.608 -0.375,13.325 0.245,24.672 m 0.957,-0.017 c -0.549,-10.014 9.292,-9.761 9.82,-0.141 0.55,10.014 -9.292,9.761 -9.82,0.141"
       style="fill:#383838"
       id="path209" />
    <path
       inkscape:connector-curvature="0"
       d="m 46.57,45.559 c -0.909,4.509 -18.029,0.549 -20.487,-1.5 -4.209,-3.516 -8.417,-7.028 -12.627,-10.544 -1.753,-1.463 -7.083,-4.548 -7.273,-7.268 -0.292,-4.154 5.941,1.417 6.683,2.069 4.295,3.759 8.608,7.501 12.974,11.182 3.677,3.098 7.896,3.279 12.552,2.829 2.99,-0.287 9.278,-2.313 8.178,3.232"
       style="fill:#383838"
       id="path211" />
  </g>
  <metadata
     id="metadata91">
    <rdf:RDF>
      <cc:Work>
        <dc:format>image/svg+xml</dc:format>
        <dc:type
           rdf:resource="http://purl.org/dc/dcmitype/StillImage" />
        <cc:license
           rdf:resource="http://creativecommons.org/licenses/publicdomain/" />
        <dc:publisher>
          <cc:Agent
             rdf:about="http://openclipart.org/">
            <dc:title>Openclipart</dc:title>
          </cc:Agent>
        </dc:publisher>
        <dc:title>Architetto -- signore</dc:title>
        <dc:date>2010-03-26T20:30:02</dc:date>
        <dc:description>Drawing by Francesco 'Architetto' Rollandin. From OCAL 0.18 release.</dc:description>
        <dc:source>https://openclipart.org/detail/34345/architetto----signore-by-anonymous</dc:source>
        <dc:creator>
          <cc:Agent>
            <dc:title>Anonymous</dc:title>
          </cc:Agent>
        </dc:creator>
        <dc:subject>
          <rdf:Bag>
            <rdf:li>icon</rdf:li>
            <rdf:li>man</rdf:li>
            <rdf:li>microphone</rdf:li>
            <rdf:li>people</rdf:li>
            <rdf:li>user</rdf:li>
          </rdf:Bag>
        </dc:subject>
      </cc:Work>
      <cc:License
         rdf:about="http://creativecommons.org/licenses/publicdomain/">
        <cc:permits
           rdf:resource="http://creativecommons.org/ns#Reproduction" />
        <cc:permits
           rdf:resource="http://creativecommons.org/ns#Distribution" />
        <cc:permits
           rdf:resource="http://creativecommons.org/ns#DerivativeWorks" />
      </cc:License>
    </rdf:RDF>
  </metadata>
</svg>
