<?xml version="1.0" encoding="UTF-8" standalone="no"?>
<!-- Generator: Adobe Illustrator 12.0.0, SVG Export Plug-In . SVG Version: 6.00 Build 51448)  -->

<svg
   xmlns:dc="http://purl.org/dc/elements/1.1/"
   xmlns:cc="http://creativecommons.org/ns#"
   xmlns:rdf="http://www.w3.org/1999/02/22-rdf-syntax-ns#"
   xmlns:svg="http://www.w3.org/2000/svg"
   xmlns="http://www.w3.org/2000/svg"
   xmlns:xlink="http://www.w3.org/1999/xlink"
   xmlns:sodipodi="http://sodipodi.sourceforge.net/DTD/sodipodi-0.dtd"
   xmlns:inkscape="http://www.inkscape.org/namespaces/inkscape"
   id="Layer_1"
   sodipodi:docname="signorina-architetto-fr-01r.svg"
   space="preserve"
   viewBox="0 0 120 120"
   sodipodi:version="0.32"
   version="1.1"
   inkscape:output_extension="org.inkscape.output.svg.inkscape"
   inkscape:version="0.48.5 r10040"
   width="100%"
   height="100%"
   inkscape:export-filename="C:\CourseAngular2\git\course-angular2\ng2-components-06\src\assets\img\operator_f.png"
   inkscape:export-xdpi="30.263527"
   inkscape:export-ydpi="30.263527">
  <defs
     id="defs188">
    <radialGradient
       id="XMLID_15_"
       gradientUnits="userSpaceOnUse"
       cy="462.75"
       cx="-293.67999"
       gradientTransform="matrix(29.207,0,0,-29.207,8615.1,13546.301)"
       r="1.6653">
      <stop
         id="stop6"
         style="stop-color:#FFFA5F"
         offset="0" />
      <stop
         id="stop8"
         style="stop-color:#9F3300"
         offset="1" />
    </radialGradient>
    <linearGradient
       id="XMLID_16_"
       y2="471.5"
       gradientUnits="userSpaceOnUse"
       y1="471.5"
       gradientTransform="matrix(0,-136.22,-136.22,0,64270,-36247.699)"
       x2="-265.29001"
       x1="-266.95999">
      <stop
         id="stop29"
         style="stop-color:#9CD305"
         offset="0" />
      <stop
         id="stop31"
         style="stop-color:#084703"
         offset="1" />
    </linearGradient>
    <linearGradient
       id="XMLID_18_"
       y2="63.771999"
       gradientUnits="userSpaceOnUse"
       y1="63.771999"
       x2="26.216"
       x1="23.132999"
       gradientTransform="translate(0,-18.699)">
      <stop
         id="stop50"
         style="stop-color:#9CD305"
         offset="0" />
      <stop
         id="stop52"
         style="stop-color:#084703"
         offset="1" />
    </linearGradient>
    <radialGradient
       id="XMLID_20_"
       gradientUnits="userSpaceOnUse"
       cy="460.07999"
       cx="-314.28"
       gradientTransform="matrix(16.729,-0.005,-0.005,-16.729,5297.4,7749.301)"
       r="1.6545">
      <stop
         id="stop69"
         style="stop-color:#B9DAF4"
         offset="0" />
      <stop
         id="stop71"
         style="stop-color:#7A97CB"
         offset="1" />
    </radialGradient>
    <linearGradient
       id="XMLID_21_"
       y2="528.51001"
       gradientUnits="userSpaceOnUse"
       y1="528.51001"
       gradientTransform="matrix(-0.9918,-12.804,-12.804,0.9918,6546.7,-3896.899)"
       x2="-267.32999"
       x1="-268.97">
      <stop
         id="stop86"
         style="stop-color:#FFFFFF"
         offset="0" />
      <stop
         id="stop88"
         style="stop-color:#FDFEFF"
         offset=".4625" />
      <stop
         id="stop90"
         style="stop-color:#F6FAFF"
         offset=".6291" />
      <stop
         id="stop92"
         style="stop-color:#EBF4FF"
         offset=".7478" />
      <stop
         id="stop94"
         style="stop-color:#DAEAFF"
         offset=".8438" />
      <stop
         id="stop96"
         style="stop-color:#C4DEFF"
         offset=".9251" />
      <stop
         id="stop98"
         style="stop-color:#A9D0FF"
         offset=".9967" />
      <stop
         id="stop100"
         style="stop-color:#A8CFFF"
         offset="1" />
    </linearGradient>
    <linearGradient
       id="XMLID_22_"
       y2="461.41"
       gradientUnits="userSpaceOnUse"
       y1="461.41"
       gradientTransform="matrix(103.4,116.94,116.94,-103.4,-26130,79148.301)"
       x2="-267.73999"
       x1="-269.39001">
      <stop
         id="stop117"
         style="stop-color:#FFD8BF"
         offset="0" />
      <stop
         id="stop119"
         style="stop-color:#BF7400"
         offset=".5393" />
      <stop
         id="stop121"
         style="stop-color:#000000"
         offset="1" />
    </linearGradient>
    <linearGradient
       id="XMLID_23_"
       y2="461.29999"
       gradientUnits="userSpaceOnUse"
       y1="461.29999"
       gradientTransform="matrix(103.4,116.94,116.94,-103.4,-26130,79148.301)"
       x2="-267.70999"
       x1="-269.41">
      <stop
         id="stop136"
         style="stop-color:#F3C192"
         offset="0" />
      <stop
         id="stop138"
         style="stop-color:#D49035"
         offset=".5393" />
      <stop
         id="stop140"
         style="stop-color:#765735"
         offset="1" />
    </linearGradient>
    <linearGradient
       id="XMLID_24_"
       y2="461.60001"
       gradientUnits="userSpaceOnUse"
       y1="461.60001"
       gradientTransform="matrix(103.4,116.94,116.94,-103.4,-26130,79148.301)"
       x2="-267.67999"
       x1="-269.44">
      <stop
         id="stop149"
         style="stop-color:#F3C192"
         offset="0" />
      <stop
         id="stop151"
         style="stop-color:#D49035"
         offset=".5393" />
      <stop
         id="stop153"
         style="stop-color:#765735"
         offset="1" />
    </linearGradient>
    <radialGradient
       id="XMLID_25_"
       gradientUnits="userSpaceOnUse"
       cy="463.54001"
       cx="-285.76001"
       gradientTransform="matrix(40.852,0,0,-40.852,11717,18969.301)"
       r="1.6746">
      <stop
         id="stop166"
         style="stop-color:#FFFA5F"
         offset="0" />
      <stop
         id="stop168"
         style="stop-color:#9F3300"
         offset="1" />
    </radialGradient>
    <linearGradient
       id="XMLID_26_"
       y2="437.35999"
       gradientUnits="userSpaceOnUse"
       y1="437.35999"
       gradientTransform="matrix(11.499,3.9998,3.9998,-11.499,2014.4,6356.201)"
       x2="-326.26001"
       x1="-327.92999">
      <stop
         id="stop175"
         style="stop-color:#FFFFFF"
         offset="0" />
      <stop
         id="stop177"
         style="stop-color:#818181"
         offset="1" />
    </linearGradient>
    <radialGradient
       inkscape:collect="always"
       xlink:href="#XMLID_15_"
       id="radialGradient3118"
       gradientUnits="userSpaceOnUse"
       gradientTransform="matrix(29.207,0,0,-29.207,8615.1,13546.301)"
       cx="-293.67999"
       cy="462.75"
       r="1.6653" />
    <linearGradient
       inkscape:collect="always"
       xlink:href="#XMLID_16_"
       id="linearGradient3120"
       gradientUnits="userSpaceOnUse"
       gradientTransform="matrix(0,-136.22,-136.22,0,64270,-36247.699)"
       x1="-266.95999"
       y1="471.5"
       x2="-265.29001"
       y2="471.5" />
    <linearGradient
       inkscape:collect="always"
       xlink:href="#XMLID_18_"
       id="linearGradient3122"
       gradientUnits="userSpaceOnUse"
       gradientTransform="translate(0,-18.699)"
       x1="23.132999"
       y1="63.771999"
       x2="26.216"
       y2="63.771999" />
    <radialGradient
       inkscape:collect="always"
       xlink:href="#XMLID_20_"
       id="radialGradient3124"
       gradientUnits="userSpaceOnUse"
       gradientTransform="matrix(16.729,-0.005,-0.005,-16.729,5297.4,7749.301)"
       cx="-314.28"
       cy="460.07999"
       r="1.6545" />
    <linearGradient
       inkscape:collect="always"
       xlink:href="#XMLID_21_"
       id="linearGradient3126"
       gradientUnits="userSpaceOnUse"
       gradientTransform="matrix(-0.9918,-12.804,-12.804,0.9918,6546.7,-3896.899)"
       x1="-268.97"
       y1="528.51001"
       x2="-267.32999"
       y2="528.51001" />
    <linearGradient
       inkscape:collect="always"
       xlink:href="#XMLID_22_"
       id="linearGradient3128"
       gradientUnits="userSpaceOnUse"
       gradientTransform="matrix(103.4,116.94,116.94,-103.4,-26130,79148.301)"
       x1="-269.39001"
       y1="461.41"
       x2="-267.73999"
       y2="461.41" />
    <linearGradient
       inkscape:collect="always"
       xlink:href="#XMLID_23_"
       id="linearGradient3130"
       gradientUnits="userSpaceOnUse"
       gradientTransform="matrix(103.4,116.94,116.94,-103.4,-26130,79148.301)"
       x1="-269.41"
       y1="461.29999"
       x2="-267.70999"
       y2="461.29999" />
    <linearGradient
       inkscape:collect="always"
       xlink:href="#XMLID_24_"
       id="linearGradient3132"
       gradientUnits="userSpaceOnUse"
       gradientTransform="matrix(103.4,116.94,116.94,-103.4,-26130,79148.301)"
       x1="-269.44"
       y1="461.60001"
       x2="-267.67999"
       y2="461.60001" />
    <radialGradient
       inkscape:collect="always"
       xlink:href="#XMLID_25_"
       id="radialGradient3134"
       gradientUnits="userSpaceOnUse"
       gradientTransform="matrix(40.852,0,0,-40.852,11717,18969.301)"
       cx="-285.76001"
       cy="463.54001"
       r="1.6746" />
    <linearGradient
       inkscape:collect="always"
       xlink:href="#XMLID_26_"
       id="linearGradient3136"
       gradientUnits="userSpaceOnUse"
       gradientTransform="matrix(11.499,3.9998,3.9998,-11.499,2014.4,6356.201)"
       x1="-327.92999"
       y1="437.35999"
       x2="-326.26001"
       y2="437.35999" />
  </defs>
  <sodipodi:namedview
     id="base"
     bordercolor="#666666"
     inkscape:pageshadow="2"
     inkscape:window-width="1024"
     pagecolor="#ffffff"
     inkscape:zoom="2.0259675"
     inkscape:window-x="-4"
     borderopacity="1.0"
     inkscape:current-layer="Layer_1"
     inkscape:cx="33.236986"
     inkscape:cy="75.81106"
     inkscape:window-y="-4"
     inkscape:window-height="712"
     inkscape:pageopacity="0.0"
     showgrid="false"
     inkscape:window-maximized="0" />
  <g
     id="g56"
     transform="translate(0,-18.699)">
    <defs
       id="defs58">
      <path
         id="XMLID_6_"
         d="m 59.62,63.219 c -1.048,0.204 -1.566,0.835 -1.557,1.893 2.136,-1.413 1.307,-0.384 1.557,-1.893"
         inkscape:connector-curvature="0" />
    </defs>
    <clipPath
       id="XMLID_19_">
      <use
         id="use62"
         xlink:href="#XMLID_6_"
         height="138.69901"
         width="84.415001"
         y="0"
         x="0" />
    </clipPath>
  </g>
  <g
     id="g3071"
     transform="matrix(0.85875961,0,0,0.8576508,23.275404,17.081867)">
    <path
       inkscape:connector-curvature="0"
       d="m 74.464,25.884 c -1.213,4.198 0.906,8.655 -0.467,12.975 -1.108,3.496 -3.972,6.009 -7.107,7.707 3.315,2.953 7.283,-2.632 8.343,-6.176 1.342,-4.481 0.173,-10.054 -0.769,-14.506 M 11.181,10.931 c -1.188,0.981 -1.53,2.722 -1.534,4.171 0.623,-1.439 1.191,-2.64 1.534,-4.171 M 9.47,9.74 C 5.176,17.928 1.569,27.543 1.02,36.867 0.631,43.496 11.035,54.768 16.67,49.001 8.988,46.75 2.75,42.13 3.955,33.445 4.541,29.232 5.806,25.095 7.276,21.116 8.788,17.02 8.954,14.057 9.47,9.74"
       style="fill:url(#radialGradient3118)"
       id="path10" />
    <path
       inkscape:connector-curvature="0"
       d="m 73.13,32.729 c 0,21.853 -37.837,19.946 -51.332,17.47 C 14.423,48.848 3.729,45.529 3.729,36.314 3.729,30.024 6.22,23.444 8.606,17.733 14.548,3.522 26.752,-15.323 44.698,-12.653 64.167,-9.755 73.13,15.676 73.13,32.729"
       style="fill:#ffce00"
       id="path12" />
    <path
       inkscape:connector-curvature="0"
       d="m 41.401,-12.894 c -16.997,0 -34.009,21.239 -32.978,37.428 0.526,8.267 2.235,18.179 10.188,22.583 10.464,4.301 21.039,5.14 32.241,3.845 7.212,-0.833 16.399,-2.498 21.227,-8.546 C 76.587,36.767 74.172,27.52 72.526,21.205 68.782,6.849 58.676,-12.894 41.401,-12.894"
       style="fill:#ffb600"
       id="path14" />
    <path
       inkscape:connector-curvature="0"
       d="m 83.422,87.521 c 0,23.36 -22.377,31.62 -42.459,31.12 C 18.731,118.081 -0.869,106.581 1.993,82.011 4.467,60.772 21.155,36.36 44.915,37.73 69.121,39.127 83.422,65.658 83.422,87.521"
       style="fill:#9cd305"
       id="path16" />
    <path
       inkscape:connector-curvature="0"
       d="m 43.081,38.594 c -23.119,0 -38.683,24.397 -40.354,45.237 -1.924,24.01 19.07,33.91 40.188,33.91 -19.184,0 -39.871,-8.58 -38.932,-30.75 0.9,-21.288 17.556,-38.106 39.067,-38.106 20.522,0 36.259,15.094 37.899,35.416 1.876,23.24 -17.169,33.44 -38.019,33.44 20.421,0 40.414,-9.47 39.535,-32.53 C 81.655,63.935 66.848,38.594 43.081,38.594"
       style="fill:#c2ef20"
       id="path18" />
    <path
       inkscape:connector-curvature="0"
       d="m 13.286,52.832 c -12.694,15.877 -19.933,44.969 -0.483,58.669 16.36,11.52 46.984,11.78 62.201,-2 16.155,-14.62 9.074,-42.69 -3.006,-57.569 -16.163,-19.906 -42.85,-18.901 -58.712,0.9 M 2.409,88.241 c 0,-23.215 17.75,-52.585 44.132,-49.603 23.056,2.604 36.117,27.785 36.117,48.883 0,21.13 -18.863,29.85 -37.576,30.33 -19.162,0.49 -42.673,-6.71 -42.673,-29.61"
       style="fill:#76aa04"
       id="path20" />
    <path
       inkscape:connector-curvature="0"
       d="m 43.009,106.741 c -13.625,0 -30.078,-2.04 -40.015,-12.47 3.672,18.27 23.766,23.61 39.953,23.61 16.168,0 35.191,-5.41 39.004,-23.38 -9.647,10.26 -25.631,12.24 -38.942,12.24"
       style="fill:#7ec405"
       id="path22" />
    <path
       inkscape:connector-curvature="0"
       d="m 43.081,38.129 c 21.729,0.015 36.007,22.021 38.225,41.587 2.554,22.545 -13.305,34.675 -34.498,35.785 -19.047,1 -43.408,-6 -43.408,-28.99 0,-21.096 14.525,-46.716 37.64,-48.308 -23.156,1.558 -38.05,26.64 -38.903,47.818 -0.971,24.09 22.214,32.66 42.766,32.15 21.281,-0.53 39.641,-11.53 37.918,-34.87 C 81.275,62.378 66.376,38.129 43.081,38.129"
       style="fill:#76aa04"
       id="path24" />
    <path
       inkscape:connector-curvature="0"
       d="m 52.125,57.948 c -1.327,1.749 -5.193,6.763 -8.009,4.874 -1.713,-1.135 -2.076,-2.673 -3.738,-0.876 -1.844,1.996 0.379,3.427 1.646,5.397 1.733,2.701 1.576,4.082 5.053,3.771 2.365,-0.209 4.713,-0.665 6.973,-1.401 0.865,-2.008 1.627,-4.063 2.29,-6.149 1.105,-3.473 -1.376,-4.006 -4.215,-5.616 m 14.311,-1.582 c -0.61,0.332 -1.215,0.674 -1.812,1.025 1.888,0.662 5.337,1.628 1.812,-1.025 M 20.999,55.405 c -1.965,1.308 -3.297,1.29 -1.612,3.565 1.641,2.214 3.695,4.112 5.915,5.733 1.116,-2.266 3.957,-3.268 5.461,-5.226 -3.075,-0.953 -8.719,-0.035 -9.764,-4.072 m 47.11,-5.425 c 0.259,0.477 0.602,0.89 1.029,1.239 0.009,-0.551 -0.334,-0.964 -1.029,-1.239 M 23.027,45.463 c -1.167,0.865 -6.833,4.721 -6.678,6.273 0.639,-0.713 6.312,-6.551 6.678,-6.273"
       style="fill:#50a600"
       id="path26" />
    <path
       inkscape:connector-curvature="0"
       d="m 68.949,54.057 c -1.16,2.473 -3.816,1.13 -0.958,3.552 0.451,-1.149 0.77,-2.332 0.958,-3.552 m -0.631,-3.732 c 0.269,0.664 0.536,1.327 0.805,1.99 0.263,-0.866 -0.004,-1.53 -0.805,-1.99 M 23.133,45.54 c -4.795,3.534 -8.292,5.997 -4.815,11.829 3.544,-2.849 2.999,-7.053 6.11,-10.929 -0.432,-0.299 -0.864,-0.6 -1.295,-0.9 m 36.448,-0.198 c -0.817,0.14 -1.329,0.511 -1.532,1.113 0.47,0.302 0.938,0.603 1.408,0.906 0.042,-0.674 0.084,-1.346 0.124,-2.019"
       style="fill:url(#linearGradient3120)"
       id="path33" />
    <path
       inkscape:connector-curvature="0"
       d="M 59.133,41.819 C 48.881,34.65 35.571,35.77 25.122,42.224 c 2.971,4.635 6.365,9.011 10.178,12.983 2.222,2.314 6.22,7.264 9.567,7.928 7.551,1.494 13.547,-16.341 14.266,-21.316"
       style="fill:#f4f4f4"
       id="path35" />
    <path
       inkscape:connector-curvature="0"
       d="m 25.458,43.951 c -0.792,0.501 -1.567,1.032 -2.325,1.589 1.944,1.425 1.713,0.285 3.083,-1.133 -0.252,-0.153 -0.506,-0.304 -0.758,-0.456"
       style="fill:url(#linearGradient3122)"
       id="path54" />
    <path
       inkscape:connector-curvature="0"
       d="m 28.772,45.744 c 0.264,0.488 0.306,0.721 0.775,0.35 -0.259,-0.117 -0.516,-0.233 -0.775,-0.35 m 29.656,-0.578 c -0.452,0.221 -0.903,0.443 -1.355,0.663 0.997,1.05 1.02,0.563 1.355,-0.663"
       style="fill:url(#radialGradient3124)"
       id="path73" />
    <path
       inkscape:connector-curvature="0"
       d="m 34.684,55.71 c 0,-2.641 19.257,0.122 21.146,0.536 2.799,0.608 4.283,0.96 3.667,4.001 -0.855,4.219 -2.489,8.357 -4.188,12.298 -1.061,2.461 -2.651,7.536 -5.307,8.826 -1.736,0.84 -4.506,-4.439 -5.126,-5.425 -2.494,-3.965 -4.705,-8.118 -6.786,-12.312 -1.047,-2.11 -3.406,-5.463 -3.406,-7.924"
       style="fill:#ffffff"
       id="path75" />
    <path
       inkscape:connector-curvature="0"
       d="m 51.093,61.048 c 1.015,2.627 4.122,8.265 3.102,11.061 -1.008,2.764 -3.319,11.372 -6.775,7.454 -4.01,-4.545 -4.364,-7.042 -2.86,-12.619 1.456,-5.398 1.009,-5.483 6.533,-5.896"
       style="fill:#64cf00"
       id="path77" />
    <path
       inkscape:connector-curvature="0"
       d="m 51.018,60.084 c -5.322,0.403 -5.515,-0.192 -6.922,4.887 -1.834,6.624 -2.188,9.919 2.724,15.372 4.251,4.728 6.934,-4.324 8.164,-7.589 0.938,-2.489 -1.668,-12.104 -3.966,-12.67 m -0.572,1.979 c 2.529,6.621 4.137,12.054 -1.228,17.911 -2.021,-1.46 -5.426,-5.604 -4.861,-8.27 0.451,-2.124 1.052,-4.225 1.632,-6.315 0.916,-3.313 1.159,-3.079 4.457,-3.326"
       style="fill:#007504"
       id="path79" />
    <path
       inkscape:connector-curvature="0"
       d="m 43.033,57.23 c 0.962,-0.747 3.125,-3.229 4.289,-3.337 0.659,-0.063 4.405,1.717 4.474,2.313 0.796,6.866 -6.586,6.326 -8.763,1.024"
       style="fill:#64cf00"
       id="path81" />
    <path
       inkscape:connector-curvature="0"
       d="m 46.728,53.128 c -0.835,0.649 -5.07,3.219 -4.727,4.11 1.104,2.872 3.527,5.818 6.956,5.301 6.962,-1.052 3.879,-10.645 -2.229,-9.411 m 0.724,1.886 c 1.139,0.523 2.274,1.045 3.414,1.563 0.108,1.613 -0.156,3.749 -2.198,4.049 -1.634,0.249 -2.944,-0.848 -3.813,-2.082 -1.188,-1.684 1.275,-2.493 2.597,-3.53"
       style="fill:#007504"
       id="path83" />
    <path
       inkscape:connector-curvature="0"
       d="m 55.742,46.406 c -4.023,1.644 -8.36,2.479 -12.706,2.479 -3.845,0 -10.155,-2.92 -13.365,-1.528 2.843,4.998 5.917,9.866 8.994,14.723 1.611,-1.866 6.058,-7.432 8.857,-7.687 2.705,-0.25 7.944,4.104 9.858,5.567 0.554,-2.136 1.006,-4.3 1.358,-6.478 0.713,-4.422 0.7,-4.702 -2.996,-7.076"
       style="fill:url(#linearGradient3126)"
       id="path102" />
    <path
       inkscape:connector-curvature="0"
       d="m 45.931,38.983 c -7.202,3.125 -14.401,6.251 -21.604,9.376 4.447,5.935 8.387,12.055 12.362,18.319 2.721,-4.143 8.306,-12.396 13.617,-9.704 1.872,0.947 9.033,7.297 10.46,6.854 2.548,-0.781 3.343,-7.738 3.789,-9.826 1.013,-4.744 -3.31,-5.492 -7.173,-7.973 -3.299,-2.123 -7.737,-6.203 -11.451,-7.046 m 0.195,1.248 c 4.063,2.626 8.14,5.228 12.21,7.839 1.763,1.133 3.527,2.266 5.291,3.397 0.778,0.498 -1.808,10.225 -3.174,11.146 -2.265,-2.232 -9.263,-8.614 -12.932,-8.22 -3.609,0.386 -8.932,7.551 -10.772,10.11 C 33.377,59.139 29.992,53.927 26.203,48.854 32.85,45.993 39.485,43.102 46.126,40.231"
       style="fill:#6e92f9"
       id="path104" />
    <path
       inkscape:connector-curvature="0"
       d="m 27.193,44.805 c 6.217,12.368 14.467,23.929 22.084,35.466 5.201,-6.974 8.316,-15.709 9.982,-24.164 0.745,-3.785 1.185,-7.629 1.329,-11.481 0.022,-0.549 3.812,2.503 4.012,2.699 1.362,1.328 3.947,3.757 3.595,5.927 -0.353,2.163 -5.175,2.629 -5.175,4.26 0,1.994 7.377,0.88 5.707,4.446 -1.798,3.833 -4.816,7.303 -7.572,10.461 -3.119,3.572 -9.378,12.042 -14.028,9.332 -5.857,-3.398 -11.63,-7.122 -16.785,-11.535 -0.93,-0.797 -5.15,-3.757 -3.985,-5.378 0.873,-1.214 7.953,-5.548 4.267,-6.408 -2.911,-0.681 -8.984,-0.058 -8.789,-4.46 0.155,-3.479 3.035,-6.795 5.358,-9.165"
       style="fill:#50a600"
       id="path106" />
    <path
       inkscape:connector-curvature="0"
       d="m 26.502,44.114 c -2.561,2.559 -5.655,6.231 -5.655,10.051 0,5.215 6.48,4.248 9.915,5.313 -4.251,5.538 -7.83,5.53 -1.53,11.069 2.863,2.519 5.974,4.761 9.137,6.883 2.108,1.416 8.691,7.081 11.146,6.781 2.002,-0.24 5.227,-3.932 6.65,-5.25 3.357,-3.105 6.438,-6.532 9.218,-10.162 4.051,-5.291 6.932,-8.711 -0.76,-11.408 4.823,-3.103 5.799,-5.302 1.553,-9.845 C 64.978,46.263 62.738,43.68 60.837,43.515 58.783,43.336 59.186,50.335 59,51.707 57.727,61.084 54.66,70.676 49.305,78.56 41.753,67.05 33.563,55.543 27.447,43.185 c -0.314,0.311 -0.628,0.62 -0.945,0.929 m 3.061,19.069 c 5.243,-4.3 2.782,-5.462 -2.738,-6.324 -6.806,-1.063 -3.026,-6.877 0.143,-10.404 6.546,12.193 14.433,23.833 22.144,35.316 C 43.143,78.38 37.293,74.66 31.969,70.31 28.722,67.653 25.661,66.335 29.563,63.183 m 20.479,17.689 c 7.484,-9.618 10.789,-23.037 11.433,-34.941 2.42,1.735 8.219,6.225 4.06,8.729 -8.043,4.841 1.131,2.805 2.541,6.378 -0.479,3.197 -4.568,7.091 -6.523,9.412 -3.42,4.065 -7.62,9.01 -12.29,11.411 0.259,-0.33 0.519,-0.66 0.779,-0.989"
       style="fill:#007504"
       id="path108" />
    <path
       inkscape:connector-curvature="0"
       d="m 74.766,17.546 c 0,17.134 -14.967,30.5 -31.73,30.5 -16.761,0 -31.714,-13.376 -31.714,-30.5 0,-17.119 14.958,-30.501 31.714,-30.501 16.758,-10e-4 31.73,13.374 31.73,30.501"
       style="fill:#fcd095"
       id="path110" />
    <path
       inkscape:connector-curvature="0"
       d="M 21.777,6.114 C 28.84,-2.185 41.052,-4.339 51.266,-1.782 62.99,1.155 69.066,10.42 70.851,21.91 73.348,5.28 59.48,-9.129 43.036,-9.129 c -16.461,0 -30.287,14.426 -27.799,31.055 0.866,-5.57 2.825,-11.47 6.54,-15.812"
       style="fill:#ffe2ae"
       id="path112" />
    <path
       inkscape:connector-curvature="0"
       d="M 73.626,13.884 C 71.858,27.43 64.446,37.778 50.282,40.251 33.075,43.255 15.338,32.521 12.543,14.475 c -0.047,1.054 0,2.102 0.142,3.146 C 12.543,16.74 12.428,15.858 12.34,14.969 10.504,34.16 28.396,49.206 46.9,46.975 63.111,45.017 75.68,30.349 73.626,13.884"
       style="fill:#fabb78"
       id="path114" />
    <path
       inkscape:connector-curvature="0"
       d="M 72.464,8.653 C 78.322,26.538 65.066,44.781 46.9,46.975 36.837,48.189 26.526,44.502 19.715,36.949 16.387,33.257 14.004,28.748 12.91,23.895 12.239,20.924 10.68,12.739 13.094,10.292 c -4.34,-0.167 -2.567,10.749 -2.017,13.417 1.112,5.399 3.726,10.419 7.435,14.49 5.106,5.604 12.113,9.253 19.614,10.337 9.855,1.423 20.095,-1.602 27.434,-8.354 7.393,-6.803 15.121,-23.065 6.904,-31.529 m 1.803,-0.108 c 0.021,0.319 0.299,0.982 0,0"
       style="fill:url(#linearGradient3128)"
       id="path123" />
    <path
       inkscape:connector-curvature="0"
       d="m 65.628,-8.528 c 5.391,5.529 8.4,10.305 8.717,18.467 C 74.329,9.48 68.234,4.218 67.312,3.462 65.106,1.653 60.92,6.467 58.437,7.513 48.305,11.778 39.75,8.706 29.469,8.766 25.144,8.791 22.735,11.81 18.906,12.546 16.516,13.005 14.585,9.395 11.813,10.088 8.53,10.906 9.596,16.837 10.091,19.165 1.775,-10.789 45.953,-28.655 65.628,-8.528"
       style="fill:#ffce00"
       id="path125" />
    <path
       inkscape:connector-curvature="0"
       d="M 73.851,5.243 C 73.965,6.205 74.045,7.171 74.09,8.138 74.085,8.026 69.061,3.544 68.488,2.979 65.033,-0.422 64.874,1.924 61.49,4.022 54.042,8.642 44.48,9.264 36.068,7.762 32.341,7.096 28.399,6.42 24.705,7.661 22.602,8.368 19.516,11.718 17.2,10.352 11.598,7.051 8.751,10.09 9.715,16.208 c -0.942,-7.586 4.276,-4.95 8.506,-3.699 1.911,0.566 5.059,-2.478 6.75,-3.047 4.441,-1.498 9.146,-0.241 13.596,0.477 7.568,1.223 16.588,-0.041 23.187,-4.12 1.939,-1.199 3.328,-4.188 5.552,-2.359 0.925,0.76 7.024,6.013 7.04,6.477 -0.06,-1.574 -0.224,-3.14 -0.495,-4.694"
       style="fill:#ffb600"
       id="path127" />
    <path
       inkscape:connector-curvature="0"
       d="m 13.138,10.294 c -0.257,0.98 -0.887,3.669 -0.797,4.675 0.065,-0.658 0.475,-4.083 3.301,-3.198 0.315,-1.289 -1.482,-1.448 -2.504,-1.477 m 50.28,-5.405 c -8.2,5.52 -18.441,6.168 -27.883,4.525 -3.826,-0.666 -7.88,-1.185 -11.559,0.434 -1.281,0.742 -3.66,2.725 -5.349,2.725 -0.686,0.104 -0.515,-0.509 -0.839,0.264 2.655,1.664 3.762,0.353 6.284,-1.112 4.195,-2.434 9.056,-1.685 13.581,-0.877 8.784,1.569 19.496,0.876 26.868,-4.763 -0.367,-0.4 -0.735,-0.799 -1.103,-1.196 M 66.354,2.792 C 67.3,4.137 68.305,4.42 69.535,5.576 68.588,4.516 67.529,3.589 66.354,2.792"
       style="fill:#f2bd7e"
       id="path129" />
    <path
       inkscape:connector-curvature="0"
       d="m 15.805,11.135 c -0.378,1.396 0.587,0.835 1.984,1.701 0.447,-1.068 -1.189,-1.264 -1.984,-1.701 M 66.061,2.658 C 65.267,3.505 64.386,4.247 63.418,4.889 66.167,7.656 64.615,3.681 67.086,3.886 66.938,3.25 66.597,2.841 66.061,2.658"
       style="fill:#f3c58a"
       id="path131" />
    <path
       inkscape:connector-curvature="0"
       d="m 12.46,13.884 c -0.163,1.292 0.03,2.455 0.225,3.736 -0.149,-1.251 -0.061,-2.494 -0.225,-3.736"
       style="fill:#f1b26f"
       id="path133" />
    <path
       inkscape:connector-curvature="0"
       d="m 13.094,10.292 c -1.078,1.092 -0.877,3.222 -0.763,4.568 0.009,-0.111 0.586,-4.568 0.763,-4.568"
       style="fill:url(#linearGradient3130)"
       id="path142" />
    <path
       inkscape:connector-curvature="0"
       d="m 18.784,12.565 c -0.209,0.011 -0.209,0.011 0,0 m 1.168,-0.449 c -0.304,0.161 -0.304,0.161 0,0 M 30.431,8.783 c 1.716,0.099 3.417,0.309 5.105,0.631 -1.688,-0.322 -3.39,-0.532 -5.105,-0.631 m -0.85,-0.018 c -0.579,0.008 -0.579,0.008 0,0 M 69.329,3.827 c 1.264,1.299 2.448,2.689 3.786,3.916 C 71.862,6.432 70.644,5.078 69.329,3.827"
       style="fill:#f3bc35"
       id="path144" />
    <path
       inkscape:connector-curvature="0"
       d="m 75.141,6.533 c 0.1,0.855 1.079,4.15 -0.725,2.51 -0.201,1.209 0.162,1.997 1.085,2.364 0.462,0 -0.315,-4.604 -0.36,-4.874"
       style="fill:#f3d4b2"
       id="path146" />
    <path
       inkscape:connector-curvature="0"
       d="m 74.292,8.927 c 0.018,0.337 0.036,0.676 0.053,1.011 -0.038,0.065 -0.078,0.13 -0.117,0.193 -0.276,-0.187 -0.55,-0.373 -0.824,-0.558 3.229,3.387 1.429,-0.126 0.888,-0.646"
       style="fill:url(#linearGradient3132)"
       id="path155" />
    <path
       inkscape:connector-curvature="0"
       d="m 74.345,9.939 c -0.157,0.257 -0.157,0.257 0,0 M 74.291,8.926 c 0.019,0.339 0.038,0.675 0.055,1.013 0.204,-0.436 0.185,-0.773 -0.055,-1.013"
       style="fill:#f3bc35"
       id="path157" />
    <path
       inkscape:connector-curvature="0"
       d="m 14.357,9.797 c -0.422,0.164 -0.842,0.33 -1.264,0.495 2.928,0 4.365,3.257 7.207,1.631 C 18.342,12.66 16.418,9.797 14.357,9.797 M 60.617,6.476 C 55.463,8.939 49.578,9.849 43.907,9.849 37.259,9.849 30.319,6.296 23.977,9.848 29.209,7.544 34.897,9.53 40.241,10.18 46.942,10.997 54.661,9.675 60.617,6.476 M 66.774,2.082 C 66.456,2.164 66.218,2.355 66.061,2.658 67.175,3.055 74.33,9.52 74.345,9.938 74,8.158 69.099,2.082 66.774,2.082"
       style="fill:#f3b035"
       id="path159" />
    <path
       inkscape:connector-curvature="0"
       d="m 74.106,6.271 c 0.025,0.208 0.456,3.051 0.138,3.087 C 71.431,9.675 69.035,1.955 65.772,1.824 64.644,1.779 59.953,6.105 58.437,6.743 53.558,8.799 48.155,9.594 42.886,9.594 38.36,9.594 34.004,7.971 29.47,7.995 c -3.389,0.02 -8.58,4.532 -11.25,3.744 -1.668,-0.492 -4.424,-3.565 -6.189,-1.668 -1.579,1.698 -0.677,5.299 -0.365,7.299 -0.216,-1.766 -0.866,-5.484 1.008,-6.663 2.294,-1.445 4.109,2.245 6.23,1.836 3.829,-0.739 6.24,-3.754 10.566,-3.778 4.534,-0.025 8.89,1.597 13.416,1.597 7.346,0 17.419,-1.114 22.481,-7.225 1.465,-1.765 7.298,7.257 8.876,6.994 0.413,-0.069 -0.08,-3.549 -0.137,-3.86"
       style="fill:#c68526"
       id="path161" />
    <path
       inkscape:connector-curvature="0"
       d="m 61.261,0.316 c 0,9.715 -35.65,8.844 -35.65,0.642 6.511,1.415 13.671,2.588 20.328,1.947 1.775,-0.171 15.322,-4.978 15.322,-2.589"
       style="fill:#ffe600"
       id="path163" />
    <path
       inkscape:connector-curvature="0"
       d="m 10.223,14.807 c 0,-20.542 21.476,-33.382 40.309,-29.158 18.808,4.219 31.07,25.51 22.787,43.863 C 84.593,9.226 68.256,-15.871 46.773,-18.461 35.684,-19.8 24.421,-15.421 17.064,-7.035 9.556,1.521 5.954,16.154 11.764,26.605 10.104,22.929 10.223,18.749 10.223,14.807"
       style="fill:url(#radialGradient3134)"
       id="path170" />
    <path
       inkscape:connector-curvature="0"
       d="m 20.222,21.767 c 0,4.885 -2.409,12.781 -8.52,12.781 -6.111,0 -8.521,-7.897 -8.521,-12.781 0,-4.885 2.41,-12.782 8.521,-12.782 6.111,0 8.52,7.897 8.52,12.782"
       style="fill:#ffffff"
       id="path172" />
    <path
       inkscape:connector-curvature="0"
       d="m 2.687,21.897 c 0.286,5.237 3.213,13.885 9.778,13.79 6.578,-0.096 8.534,-8.968 8.253,-14.05 C 20.432,16.399 17.505,7.751 10.938,7.847 4.358,7.941 2.407,16.815 2.687,21.897 M 4.159,21.876 C 3.926,17.628 5.332,9.488 11.025,9.403 c 5.68,-0.083 7.981,7.86 8.222,12.254 0.233,4.247 -1.175,12.389 -6.868,12.471 C 6.701,34.21 4.398,26.269 4.159,21.876"
       style="fill:url(#linearGradient3136)"
       id="path179" />
    <path
       inkscape:connector-curvature="0"
       d="m 11.323,21.767 c 0,10.144 -10.98,10.144 -10.98,0 0,-10.143 10.98,-10.143 10.98,0"
       style="fill:#5e5d5d"
       id="path181" />
    <path
       inkscape:connector-curvature="0"
       d="M 0.023,21.852 C 0.613,32.635 12.255,32.912 11.641,21.683 11.053,10.899 -0.59,10.621 0.023,21.852 m 0.948,-0.015 c -0.544,-9.915 9.199,-9.661 9.722,-0.142 0.543,9.916 -9.199,9.664 -9.722,0.142"
       style="fill:#383838"
       id="path183" />
    <path
       inkscape:connector-curvature="0"
       d="M 45.883,42.529 C 44.982,46.993 28.033,43.073 25.602,41.045 21.436,37.564 17.269,34.087 13.102,30.607 11.366,29.16 6.09,26.104 5.901,23.412 c -0.288,-4.112 5.881,1.405 6.616,2.048 4.253,3.723 8.522,7.426 12.844,11.069 3.64,3.067 7.815,3.246 12.425,2.801 2.961,-0.285 9.185,-2.289 8.097,3.199"
       style="fill:#383838"
       id="path185" />
  </g>
  <metadata
     id="metadata94">
    <rdf:RDF>
      <cc:Work>
        <dc:format>image/svg+xml</dc:format>
        <dc:type
           rdf:resource="http://purl.org/dc/dcmitype/StillImage" />
        <cc:license
           rdf:resource="http://creativecommons.org/licenses/publicdomain/" />
        <dc:publisher>
          <cc:Agent
             rdf:about="http://openclipart.org/">
            <dc:title>Openclipart</dc:title>
          </cc:Agent>
        </dc:publisher>
        <dc:title>Architetto -- signorina</dc:title>
        <dc:date>2010-03-26T20:30:31</dc:date>
        <dc:description>Drawing by Francesco 'Architetto' Rollandin. From OCAL 0.18 release.</dc:description>
        <dc:source>https://openclipart.org/detail/34351/architetto----signorina-by-anonymous</dc:source>
        <dc:creator>
          <cc:Agent>
            <dc:title>Anonymous</dc:title>
          </cc:Agent>
        </dc:creator>
        <dc:subject>
          <rdf:Bag>
            <rdf:li>icon</rdf:li>
            <rdf:li>microphone</rdf:li>
            <rdf:li>people</rdf:li>
            <rdf:li>user</rdf:li>
            <rdf:li>woman</rdf:li>
          </rdf:Bag>
        </dc:subject>
      </cc:Work>
      <cc:License
         rdf:about="http://creativecommons.org/licenses/publicdomain/">
        <cc:permits
           rdf:resource="http://creativecommons.org/ns#Reproduction" />
        <cc:permits
           rdf:resource="http://creativecommons.org/ns#Distribution" />
        <cc:permits
           rdf:resource="http://creativecommons.org/ns#DerivativeWorks" />
      </cc:License>
    </rdf:RDF>
  </metadata>
</svg>
